<mxfile host="app.diagrams.net" modified="2022-07-25T07:30:11.393Z" agent="5.0 (Windows NT 10.0; Win64; x64) AppleWebKit/537.36 (KHTML, like Gecko) Chrome/103.0.0.0 Safari/537.36" etag="IKEiU67axI_j_k1CZ4C3" version="20.1.3" type="github">
  <diagram id="FB3oiVCDdu1StfZkIanC" name="第 1 页">
    <mxGraphModel dx="1422" dy="762" grid="1" gridSize="10" guides="1" tooltips="1" connect="1" arrows="1" fold="1" page="1" pageScale="1" pageWidth="827" pageHeight="1169" math="0" shadow="0">
      <root>
        <mxCell id="0" />
        <mxCell id="1" parent="0" />
        <mxCell id="wnDvW4o2_6gSg0_ogFNA-1" value="" style="rounded=0;whiteSpace=wrap;html=1;fillColor=#f5f5f5;fontColor=#333333;strokeColor=#666666;" vertex="1" parent="1">
          <mxGeometry x="234" y="230" width="426" height="230" as="geometry" />
        </mxCell>
        <mxCell id="wnDvW4o2_6gSg0_ogFNA-2" value="经纪人" style="shape=umlActor;verticalLabelPosition=bottom;verticalAlign=top;html=1;outlineConnect=0;" vertex="1" parent="1">
          <mxGeometry x="70" y="310" width="50" height="80" as="geometry" />
        </mxCell>
        <mxCell id="wnDvW4o2_6gSg0_ogFNA-3" value="&lt;b&gt;入驻&lt;/b&gt;" style="rounded=1;whiteSpace=wrap;html=1;fillColor=#d5e8d4;strokeColor=#82b366;fontFamily=Courier New;" vertex="1" parent="1">
          <mxGeometry x="260" y="260" width="100" height="40" as="geometry" />
        </mxCell>
        <mxCell id="wnDvW4o2_6gSg0_ogFNA-4" value="&lt;b&gt;所属业务关系&lt;/b&gt;" style="rounded=1;whiteSpace=wrap;html=1;fillColor=#d5e8d4;strokeColor=#82b366;fontFamily=Courier New;" vertex="1" parent="1">
          <mxGeometry x="390" y="260" width="100" height="40" as="geometry" />
        </mxCell>
        <mxCell id="wnDvW4o2_6gSg0_ogFNA-5" value="&lt;b&gt;所在地域&lt;/b&gt;" style="rounded=1;whiteSpace=wrap;html=1;fillColor=#d5e8d4;strokeColor=#82b366;fontFamily=Courier New;" vertex="1" parent="1">
          <mxGeometry x="520" y="260" width="100" height="40" as="geometry" />
        </mxCell>
        <mxCell id="wnDvW4o2_6gSg0_ogFNA-6" value="&lt;b&gt;医生&lt;/b&gt;&lt;b&gt;维护&lt;/b&gt;" style="rounded=1;whiteSpace=wrap;html=1;fillColor=#d5e8d4;strokeColor=#82b366;fontFamily=Courier New;" vertex="1" parent="1">
          <mxGeometry x="260" y="325" width="100" height="40" as="geometry" />
        </mxCell>
        <mxCell id="wnDvW4o2_6gSg0_ogFNA-7" value="&lt;b&gt;处方池管理&lt;/b&gt;" style="rounded=1;whiteSpace=wrap;html=1;fillColor=#d5e8d4;strokeColor=#82b366;fontFamily=Courier New;" vertex="1" parent="1">
          <mxGeometry x="520" y="325" width="100" height="40" as="geometry" />
        </mxCell>
        <mxCell id="wnDvW4o2_6gSg0_ogFNA-8" value="&lt;b&gt;收入管理&lt;/b&gt;" style="rounded=1;whiteSpace=wrap;html=1;fillColor=#d5e8d4;strokeColor=#82b366;fontFamily=Courier New;" vertex="1" parent="1">
          <mxGeometry x="390" y="325" width="100" height="40" as="geometry" />
        </mxCell>
        <mxCell id="wnDvW4o2_6gSg0_ogFNA-9" value="&lt;b&gt;订单管理&lt;/b&gt;" style="rounded=1;whiteSpace=wrap;html=1;fillColor=#d5e8d4;strokeColor=#82b366;fontFamily=Courier New;" vertex="1" parent="1">
          <mxGeometry x="260" y="390" width="100" height="40" as="geometry" />
        </mxCell>
      </root>
    </mxGraphModel>
  </diagram>
</mxfile>
